<mxfile host="app.diagrams.net" modified="2022-09-25T13:28:10.857Z" agent="5.0 (X11)" etag="0BdcV1MV3eEMNqpfGD30" version="20.1.1" type="github">
  <diagram id="hoOkdboNHDdRBDRIFd1N" name="Page-1">
    <mxGraphModel dx="2063" dy="876" grid="1" gridSize="10" guides="1" tooltips="1" connect="1" arrows="1" fold="1" page="1" pageScale="1" pageWidth="583" pageHeight="827" math="0" shadow="0">
      <root>
        <mxCell id="0" />
        <mxCell id="1" parent="0" />
        <mxCell id="tZ_vusb5LD2nkV4OezKx-30" value="" style="group" vertex="1" connectable="0" parent="1">
          <mxGeometry x="160" y="80" width="440" height="216.5" as="geometry" />
        </mxCell>
        <mxCell id="tZ_vusb5LD2nkV4OezKx-33" value="" style="group" vertex="1" connectable="0" parent="tZ_vusb5LD2nkV4OezKx-30">
          <mxGeometry width="440" height="216.5" as="geometry" />
        </mxCell>
        <mxCell id="tZ_vusb5LD2nkV4OezKx-3" value="" style="whiteSpace=wrap;html=1;" vertex="1" parent="tZ_vusb5LD2nkV4OezKx-33">
          <mxGeometry x="50" y="29.5" width="390" height="187" as="geometry" />
        </mxCell>
        <mxCell id="tZ_vusb5LD2nkV4OezKx-4" value="" style="sketch=0;aspect=fixed;pointerEvents=1;shadow=0;dashed=0;html=1;strokeColor=none;labelPosition=center;verticalLabelPosition=bottom;verticalAlign=top;align=center;fillColor=#00188D;shape=mxgraph.mscae.enterprise.internet;fillStyle=auto;" vertex="1" parent="tZ_vusb5LD2nkV4OezKx-33">
          <mxGeometry width="96.77" height="60" as="geometry" />
        </mxCell>
        <mxCell id="tZ_vusb5LD2nkV4OezKx-31" value="Hetzner Cloud Platform" style="text;html=1;align=center;verticalAlign=middle;resizable=0;points=[];autosize=1;strokeColor=none;fillColor=none;" vertex="1" parent="tZ_vusb5LD2nkV4OezKx-33">
          <mxGeometry x="160" y="30" width="150" height="30" as="geometry" />
        </mxCell>
        <mxCell id="tZ_vusb5LD2nkV4OezKx-12" style="edgeStyle=orthogonalEdgeStyle;rounded=0;orthogonalLoop=1;jettySize=auto;html=1;exitX=0;exitY=0.5;exitDx=0;exitDy=0;exitPerimeter=0;entryX=0.97;entryY=0.5;entryDx=0;entryDy=0;entryPerimeter=0;startArrow=none;startFill=0;endArrow=none;endFill=0;" edge="1" parent="1" source="tZ_vusb5LD2nkV4OezKx-5" target="tZ_vusb5LD2nkV4OezKx-2">
          <mxGeometry relative="1" as="geometry">
            <Array as="points">
              <mxPoint x="510" y="203" />
            </Array>
          </mxGeometry>
        </mxCell>
        <mxCell id="tZ_vusb5LD2nkV4OezKx-10" value="&lt;div&gt;Private Network&lt;/div&gt;" style="sketch=0;aspect=fixed;html=1;points=[];align=center;image;fontSize=12;image=img/lib/mscae/Security_Center.svg;fillStyle=auto;fillColor=#6666FF;gradientColor=none;" vertex="1" parent="1">
          <mxGeometry x="380" y="180" width="25.92" height="36" as="geometry" />
        </mxCell>
        <mxCell id="tZ_vusb5LD2nkV4OezKx-18" style="edgeStyle=orthogonalEdgeStyle;rounded=0;orthogonalLoop=1;jettySize=auto;html=1;entryX=0.5;entryY=0;entryDx=0;entryDy=0;entryPerimeter=0;startArrow=none;startFill=0;endArrow=classic;endFill=1;strokeColor=#F08705;exitX=0.75;exitY=0;exitDx=0;exitDy=0;" edge="1" parent="1" source="tZ_vusb5LD2nkV4OezKx-14" target="tZ_vusb5LD2nkV4OezKx-2">
          <mxGeometry relative="1" as="geometry">
            <Array as="points">
              <mxPoint x="50" y="270" />
              <mxPoint x="50" y="150" />
              <mxPoint x="255" y="150" />
            </Array>
          </mxGeometry>
        </mxCell>
        <mxCell id="tZ_vusb5LD2nkV4OezKx-20" value="&lt;div&gt;Deployment&lt;/div&gt;" style="edgeLabel;html=1;align=center;verticalAlign=middle;resizable=0;points=[];" vertex="1" connectable="0" parent="tZ_vusb5LD2nkV4OezKx-18">
          <mxGeometry x="-0.593" relative="1" as="geometry">
            <mxPoint x="60" y="-74" as="offset" />
          </mxGeometry>
        </mxCell>
        <mxCell id="tZ_vusb5LD2nkV4OezKx-13" value="" style="dashed=0;outlineConnect=0;html=1;align=center;labelPosition=center;verticalLabelPosition=bottom;verticalAlign=top;shape=mxgraph.weblogos.github;fillStyle=auto;fillColor=#6666FF;gradientColor=none;" vertex="1" parent="1">
          <mxGeometry x="-80" y="230" width="75" height="75" as="geometry" />
        </mxCell>
        <mxCell id="tZ_vusb5LD2nkV4OezKx-14" value="Github Container Registery" style="shape=image;html=1;verticalAlign=top;verticalLabelPosition=bottom;labelBackgroundColor=#ffffff;imageAspect=0;aspect=fixed;image=https://cdn1.iconfinder.com/data/icons/unicons-line-vol-3/24/docker-128.png;fillStyle=auto;fillColor=#6666FF;gradientColor=none;" vertex="1" parent="1">
          <mxGeometry x="-40" y="270" width="60" height="60" as="geometry" />
        </mxCell>
        <mxCell id="tZ_vusb5LD2nkV4OezKx-22" value="" style="group" vertex="1" connectable="0" parent="1">
          <mxGeometry x="230" y="160" width="70" height="44" as="geometry" />
        </mxCell>
        <mxCell id="tZ_vusb5LD2nkV4OezKx-2" value="&lt;div&gt;WebServer&lt;/div&gt;&lt;div&gt;s1.egerd.com&lt;br&gt;&lt;/div&gt;" style="sketch=0;aspect=fixed;pointerEvents=1;shadow=0;dashed=0;html=1;strokeColor=none;labelPosition=center;verticalLabelPosition=bottom;verticalAlign=top;align=center;fillColor=#00188D;shape=mxgraph.mscae.enterprise.device" vertex="1" parent="tZ_vusb5LD2nkV4OezKx-22">
          <mxGeometry y="18" width="50" height="26" as="geometry" />
        </mxCell>
        <mxCell id="tZ_vusb5LD2nkV4OezKx-21" value="" style="shape=image;html=1;verticalAlign=top;verticalLabelPosition=bottom;labelBackgroundColor=#ffffff;imageAspect=0;aspect=fixed;image=https://cdn1.iconfinder.com/data/icons/unicons-line-vol-3/24/docker-128.png;fillStyle=auto;fillColor=#6666FF;gradientColor=none;" vertex="1" parent="tZ_vusb5LD2nkV4OezKx-22">
          <mxGeometry x="40" width="30" height="30" as="geometry" />
        </mxCell>
        <mxCell id="tZ_vusb5LD2nkV4OezKx-24" value="" style="group" vertex="1" connectable="0" parent="1">
          <mxGeometry x="510" y="150" width="60" height="66" as="geometry" />
        </mxCell>
        <mxCell id="tZ_vusb5LD2nkV4OezKx-5" value="&lt;div&gt;MongoServer&lt;/div&gt;&lt;div&gt;s2.egerd.com&lt;br&gt;&lt;/div&gt;" style="sketch=0;aspect=fixed;pointerEvents=1;shadow=0;dashed=0;html=1;strokeColor=none;labelPosition=center;verticalLabelPosition=bottom;verticalAlign=top;align=center;fillColor=#00188D;shape=mxgraph.mscae.enterprise.database_server;fillStyle=auto;" vertex="1" parent="tZ_vusb5LD2nkV4OezKx-24">
          <mxGeometry y="16" width="38" height="50" as="geometry" />
        </mxCell>
        <mxCell id="tZ_vusb5LD2nkV4OezKx-23" value="" style="shape=image;html=1;verticalAlign=top;verticalLabelPosition=bottom;labelBackgroundColor=#ffffff;imageAspect=0;aspect=fixed;image=https://cdn1.iconfinder.com/data/icons/unicons-line-vol-3/24/docker-128.png;fillStyle=auto;fillColor=#6666FF;gradientColor=none;" vertex="1" parent="tZ_vusb5LD2nkV4OezKx-24">
          <mxGeometry x="20" width="40" height="40" as="geometry" />
        </mxCell>
        <mxCell id="tZ_vusb5LD2nkV4OezKx-25" value="&lt;div&gt;S3 Storage Bucket&lt;/div&gt;" style="sketch=0;points=[[0,0,0],[0.25,0,0],[0.5,0,0],[0.75,0,0],[1,0,0],[0,1,0],[0.25,1,0],[0.5,1,0],[0.75,1,0],[1,1,0],[0,0.25,0],[0,0.5,0],[0,0.75,0],[1,0.25,0],[1,0.5,0],[1,0.75,0]];outlineConnect=0;fontColor=#232F3E;gradientColor=#60A337;gradientDirection=north;fillColor=#277116;strokeColor=#ffffff;dashed=0;verticalLabelPosition=bottom;verticalAlign=top;align=center;html=1;fontSize=12;fontStyle=0;aspect=fixed;shape=mxgraph.aws4.resourceIcon;resIcon=mxgraph.aws4.s3;fillStyle=auto;" vertex="1" parent="1">
          <mxGeometry x="-60" y="50" width="48" height="48" as="geometry" />
        </mxCell>
        <mxCell id="tZ_vusb5LD2nkV4OezKx-26" style="edgeStyle=orthogonalEdgeStyle;rounded=0;orthogonalLoop=1;jettySize=auto;html=1;exitX=0.5;exitY=0;exitDx=0;exitDy=0;exitPerimeter=0;entryX=1;entryY=0.5;entryDx=0;entryDy=0;entryPerimeter=0;startArrow=none;startFill=0;endArrow=classic;endFill=1;strokeColor=#F08705;" edge="1" parent="1" source="tZ_vusb5LD2nkV4OezKx-5" target="tZ_vusb5LD2nkV4OezKx-25">
          <mxGeometry relative="1" as="geometry" />
        </mxCell>
        <mxCell id="tZ_vusb5LD2nkV4OezKx-28" style="edgeStyle=orthogonalEdgeStyle;rounded=0;orthogonalLoop=1;jettySize=auto;html=1;exitX=0.5;exitY=0;exitDx=0;exitDy=0;exitPerimeter=0;entryX=1;entryY=0.5;entryDx=0;entryDy=0;entryPerimeter=0;startArrow=none;startFill=0;endArrow=classic;endFill=1;strokeColor=#F08705;" edge="1" parent="1" source="tZ_vusb5LD2nkV4OezKx-2" target="tZ_vusb5LD2nkV4OezKx-25">
          <mxGeometry relative="1" as="geometry">
            <Array as="points">
              <mxPoint x="255" y="150" />
              <mxPoint x="310" y="150" />
              <mxPoint x="310" y="74" />
            </Array>
          </mxGeometry>
        </mxCell>
        <mxCell id="tZ_vusb5LD2nkV4OezKx-29" value="&lt;div&gt;Backuping&lt;/div&gt;" style="edgeLabel;html=1;align=center;verticalAlign=middle;resizable=0;points=[];" vertex="1" connectable="0" parent="tZ_vusb5LD2nkV4OezKx-28">
          <mxGeometry x="0.7808" y="-3" relative="1" as="geometry">
            <mxPoint y="-13" as="offset" />
          </mxGeometry>
        </mxCell>
        <mxCell id="tZ_vusb5LD2nkV4OezKx-34" value="" style="sketch=0;pointerEvents=1;shadow=0;dashed=0;html=1;strokeColor=none;fillColor=#505050;labelPosition=center;verticalLabelPosition=bottom;verticalAlign=top;outlineConnect=0;align=center;shape=mxgraph.office.servers.3rd_party_mail_server;fillStyle=auto;" vertex="1" parent="1">
          <mxGeometry x="190" y="342.5" width="47" height="59" as="geometry" />
        </mxCell>
        <mxCell id="tZ_vusb5LD2nkV4OezKx-36" style="edgeStyle=orthogonalEdgeStyle;rounded=0;orthogonalLoop=1;jettySize=auto;html=1;startArrow=none;startFill=0;endArrow=classic;endFill=1;strokeColor=#F08705;" edge="1" parent="1" source="tZ_vusb5LD2nkV4OezKx-35" target="tZ_vusb5LD2nkV4OezKx-34">
          <mxGeometry relative="1" as="geometry" />
        </mxCell>
        <mxCell id="tZ_vusb5LD2nkV4OezKx-37" style="edgeStyle=orthogonalEdgeStyle;rounded=0;orthogonalLoop=1;jettySize=auto;html=1;startArrow=none;startFill=0;endArrow=classic;endFill=1;strokeColor=#F08705;" edge="1" parent="1" source="tZ_vusb5LD2nkV4OezKx-35" target="tZ_vusb5LD2nkV4OezKx-2">
          <mxGeometry relative="1" as="geometry">
            <Array as="points">
              <mxPoint x="370" y="260" />
              <mxPoint x="310" y="260" />
              <mxPoint x="310" y="191" />
            </Array>
          </mxGeometry>
        </mxCell>
        <mxCell id="tZ_vusb5LD2nkV4OezKx-35" value="Cloudflare DNS Service" style="aspect=fixed;html=1;points=[];align=center;image;fontSize=12;image=img/lib/azure2/networking/DNS_Zones.svg;fillStyle=auto;fillColor=#6666FF;gradientColor=none;" vertex="1" parent="1">
          <mxGeometry x="340" y="340" width="64" height="64" as="geometry" />
        </mxCell>
        <mxCell id="tZ_vusb5LD2nkV4OezKx-40" value="" style="group" vertex="1" connectable="0" parent="1">
          <mxGeometry x="-91" y="390" width="110" height="110" as="geometry" />
        </mxCell>
        <mxCell id="tZ_vusb5LD2nkV4OezKx-38" value="" style="sketch=0;html=1;dashed=0;whitespace=wrap;fillColor=#2875E2;strokeColor=#ffffff;points=[[0.005,0.63,0],[0.1,0.2,0],[0.9,0.2,0],[0.5,0,0],[0.995,0.63,0],[0.72,0.99,0],[0.5,1,0],[0.28,0.99,0]];shape=mxgraph.kubernetes.icon;prIcon=api;fillStyle=auto;" vertex="1" parent="tZ_vusb5LD2nkV4OezKx-40">
          <mxGeometry x="16.5" width="77" height="70" as="geometry" />
        </mxCell>
        <mxCell id="tZ_vusb5LD2nkV4OezKx-39" value="&lt;div&gt;RainForestAPI&lt;/div&gt;&lt;div&gt;Amazon Crawler&lt;br&gt;&lt;/div&gt;" style="text;html=1;align=center;verticalAlign=middle;resizable=0;points=[];autosize=1;strokeColor=none;fillColor=none;" vertex="1" parent="tZ_vusb5LD2nkV4OezKx-40">
          <mxGeometry y="70" width="110" height="40" as="geometry" />
        </mxCell>
        <mxCell id="tZ_vusb5LD2nkV4OezKx-42" style="edgeStyle=orthogonalEdgeStyle;rounded=0;orthogonalLoop=1;jettySize=auto;html=1;exitX=0.03;exitY=0.5;exitDx=0;exitDy=0;exitPerimeter=0;entryX=0.995;entryY=0.63;entryDx=0;entryDy=0;entryPerimeter=0;startArrow=none;startFill=0;endArrow=classic;endFill=1;strokeColor=#F08705;" edge="1" parent="1" source="tZ_vusb5LD2nkV4OezKx-2" target="tZ_vusb5LD2nkV4OezKx-38">
          <mxGeometry relative="1" as="geometry" />
        </mxCell>
      </root>
    </mxGraphModel>
  </diagram>
</mxfile>
